<mxfile host="65bd71144e">
    <diagram id="LYP9TSNvhC-ifNBUHEC6" name="Page-1">
        <mxGraphModel dx="1118" dy="1890" grid="1" gridSize="10" guides="1" tooltips="1" connect="1" arrows="1" fold="1" page="1" pageScale="1" pageWidth="850" pageHeight="1100" math="0" shadow="0">
            <root>
                <mxCell id="0"/>
                <mxCell id="1" parent="0"/>
                <mxCell id="2" value="" style="whiteSpace=wrap;html=1;aspect=fixed;" parent="1" vertex="1">
                    <mxGeometry x="120" y="50" width="580" height="580" as="geometry"/>
                </mxCell>
                <mxCell id="3" value="" style="rounded=0;whiteSpace=wrap;html=1;" parent="1" vertex="1">
                    <mxGeometry x="130" y="60" width="560" height="70" as="geometry"/>
                </mxCell>
                <mxCell id="4" value="Titre /// Et lien de retour vers acceuil" style="rounded=0;whiteSpace=wrap;html=1;" parent="1" vertex="1">
                    <mxGeometry x="210" y="70" width="360" height="50" as="geometry"/>
                </mxCell>
                <mxCell id="5" value="Nav /DropDown" style="rounded=0;whiteSpace=wrap;html=1;" parent="1" vertex="1">
                    <mxGeometry x="140" y="70" width="60" height="50" as="geometry"/>
                </mxCell>
                <mxCell id="6" value="Langue Ou date" style="rounded=0;whiteSpace=wrap;html=1;" parent="1" vertex="1">
                    <mxGeometry x="580" y="70" width="100" height="50" as="geometry"/>
                </mxCell>
                <mxCell id="7" value="" style="rounded=0;whiteSpace=wrap;html=1;" parent="1" vertex="1">
                    <mxGeometry x="130" y="140" width="560" height="420" as="geometry"/>
                </mxCell>
                <mxCell id="8" value="Footer" style="rounded=0;whiteSpace=wrap;html=1;" parent="1" vertex="1">
                    <mxGeometry x="130" y="570" width="560" height="50" as="geometry"/>
                </mxCell>
                <mxCell id="9" value="PRODUIT&amp;nbsp;" style="rounded=0;whiteSpace=wrap;html=1;" parent="1" vertex="1">
                    <mxGeometry x="140" y="150" width="520" height="120" as="geometry"/>
                </mxCell>
                <mxCell id="10" value="PRODUIT&amp;nbsp;" style="rounded=0;whiteSpace=wrap;html=1;" parent="1" vertex="1">
                    <mxGeometry x="140" y="290" width="520" height="130" as="geometry"/>
                </mxCell>
                <mxCell id="11" value="PRODUIT&amp;nbsp;" style="rounded=0;whiteSpace=wrap;html=1;" parent="1" vertex="1">
                    <mxGeometry x="140" y="430" width="520" height="120" as="geometry"/>
                </mxCell>
                <mxCell id="12" value="" style="rounded=0;whiteSpace=wrap;html=1;rotation=90;" parent="1" vertex="1">
                    <mxGeometry x="470.95" y="342.81" width="404.37" height="18.75" as="geometry"/>
                </mxCell>
                <mxCell id="13" value="" style="rounded=0;whiteSpace=wrap;html=1;rotation=90;fillColor=#f5f5f5;gradientColor=#b3b3b3;strokeColor=#666666;" parent="1" vertex="1">
                    <mxGeometry x="663.14" y="520" width="20" height="18.44" as="geometry"/>
                </mxCell>
                <mxCell id="14" value="IMG" style="rounded=0;whiteSpace=wrap;html=1;" parent="1" vertex="1">
                    <mxGeometry x="150" y="160" width="110" height="100" as="geometry"/>
                </mxCell>
                <mxCell id="15" value="TITRE DU PRODUIT" style="rounded=0;whiteSpace=wrap;html=1;" parent="1" vertex="1">
                    <mxGeometry x="270" y="160" width="380" height="100" as="geometry"/>
                </mxCell>
                <mxCell id="16" value="IMG" style="rounded=0;whiteSpace=wrap;html=1;" parent="1" vertex="1">
                    <mxGeometry x="150" y="300" width="110" height="110" as="geometry"/>
                </mxCell>
                <mxCell id="17" value="TITRE DU PRODUIT" style="rounded=0;whiteSpace=wrap;html=1;" parent="1" vertex="1">
                    <mxGeometry x="270" y="300" width="380" height="110" as="geometry"/>
                </mxCell>
                <mxCell id="18" value="IMG" style="rounded=0;whiteSpace=wrap;html=1;" parent="1" vertex="1">
                    <mxGeometry x="150" y="440" width="110" height="100" as="geometry"/>
                </mxCell>
                <mxCell id="19" value="TITRE DU PRODUIT" style="rounded=0;whiteSpace=wrap;html=1;" parent="1" vertex="1">
                    <mxGeometry x="270" y="440" width="380" height="100" as="geometry"/>
                </mxCell>
                <mxCell id="20" value="Evan" style="rounded=0;whiteSpace=wrap;html=1;" parent="1" vertex="1">
                    <mxGeometry x="10" y="-20" width="180" height="60" as="geometry"/>
                </mxCell>
            </root>
        </mxGraphModel>
    </diagram>
</mxfile>